{"title":"Clive Barker`s  Saint Sinner (2002) - DVDRip - XviD (AC-3, 5.1)","uid":4768623,"size":734429184,"categoryP":"video","categoryS":"movies","magnet":"?xt=urn:btih:7807c7ae394acd948f2cf6cddb217a848f7950c0&amp;dn=Clive+Barker%60s++Saint+Sinner+%282002%29+-+DVDRip+-+XviD+%28AC-3%2C+5.1%29&amp;tr=udp%3A%2F%2Ftracker.openbittorrent.com%3A80&amp;tr=udp%3A%2F%2Fopen.demonii.com%3A1337&amp;tr=udp%3A%2F%2Ftracker.coppersurfer.tk%3A6969&amp;tr=udp%3A%2F%2Fexodus.desync.com%3A6969","seeders":3,"leechers":0,"uploader":"akhiugo","files":-1,"time":1236963442,"description":"In 1815 a monk, Tomas Alcala, unwittingly unleashes two female succubi, Munkar and Nakir, upon an unsuspecting 21st century. He is chosen by God to travel through the centuries and stop the demons' rampage.\n\n\n\n\nGeneral\nComplete name                    : CLIVE BARKER PRESENTS SAINT SINNER.avi\nFormat                           : AVI\nFormat/Info                      : Audio Video Interleave\nFile size                        : 700 MiB\nDuration                         : 1h 25mn\nOverall bit rate                 : 1 141 Kbps\nWriting application              : VirtualDubMod 1.5.4.1 (build 2178/release)\nWriting library                  : VirtualDubMod build 2178/release\n\nVideo\nFormat                           : MPEG-4 Visual\nFormat profile                   : Streaming Video@L1\nFormat settings, BVOP            : Yes\nFormat settings, QPel            : No\nFormat settings, GMC             : No warppoints\nFormat settings, Matrix          : Custom\nCodec ID                         : XVID\nCodec ID/Hint                    : XviD\nDuration                         : 1h 25mn\nBit rate                         : 686 Kbps\nWidth                            : 608 pixels\nHeight                           : 352 pixels\nDisplay aspect ratio             : 16/9\nFrame rate                       : 23.976 fps\nResolution                       : 24 bits\nColorimetry                      : 4:2:0\nScan type                        : Progressive\nBits/(Pixel*Frame)               : 0.134\nStream size                      : 421 MiB (60%)\nWriting library                  : XviD 1.2.0.dev47 (UTC 2006-11-01)\n\nAudio\nFormat                           : AC-3\nFormat/Info                      : Audio Coding 3\nCodec ID                         : 2000\nDuration                         : 1h 25mn\nBit rate mode                    : Constant\nBit rate                         : 448 Kbps\nChannel(s)                       : 6 channels\nChannel positions                : Front: L C R, Surround: L R, LFE\nSampling rate                    : 48.0 KHz\nStream size                      : 275 MiB (39%)\nAlignment                        : Split accross interleaves\nInterleave, duration             : 96 ms (2.30 video frames)\nInterleave, preload duration     : 96 ms\nLanguage                         : English\n\n\nThumbnailed screens:\n &lt;a href=&quot;\nhttp://bayimg.com/jAOijaabE&quot; rel=&quot;nofollow&quot; target=&quot;_NEW&quot;&gt;\nhttp://bayimg.com/jAOijaabE&lt;/a&gt;\n\n\n\nPlease help your fellow pirates by seeding after download!","torrent":{"xt":"urn:btih:7807c7ae394acd948f2cf6cddb217a848f7950c0","amp;dn":"Clive+Barker%60s++Saint+Sinner+%282002%29+-+DVDRip+-+XviD+%28AC-3%2C+5.1%29","amp;tr":["udp%3A%2F%2Ftracker.openbittorrent.com%3A80","udp%3A%2F%2Fopen.demonii.com%3A1337","udp%3A%2F%2Ftracker.coppersurfer.tk%3A6969","udp%3A%2F%2Fexodus.desync.com%3A6969"],"infoHash":"7807c7ae394acd948f2cf6cddb217a848f7950c0","infoHashBuffer":{"type":"Buffer","data":[120,7,199,174,57,74,205,148,143,44,246,205,219,33,122,132,143,121,80,192]},"announce":[],"urlList":[]}}